<svg xmlns="http://www.w3.org/2000/svg" viewBox="29.067 -320.106 597.933 255.411"><defs><style>.a{fill:#2e3192;}.b{fill:#fcaf17;}.c{fill:#f26522;}</style></defs><g transform="translate(29.067 -320.006)"><path class="a" d="M548.294,135.9a49.75,49.75,0,0,0-37.579,17.336V127.821a10.785,10.785,0,0,0-.754-4.2A50.062,50.062,0,1,0,441.8,51.262V39.525a13.178,13.178,0,0,0-12.275-13.137,13.367,13.367,0,0,0-3.876-9.045L416.5,8.3a13.4,13.4,0,0,0-9.26-3.769,12.987,12.987,0,0,0-8.4,3.015l-3.769-3.769a13,13,0,0,0-18.521,0L359,21.328A13.2,13.2,0,0,0,355.12,30.7,12.947,12.947,0,0,0,359,39.956l3.015,2.907A51.022,51.022,0,0,0,344.46,66.122l-14.752-33.6a13.123,13.123,0,0,0-12.06-7.86h0a13.354,13.354,0,0,0-12.06,7.86l-12.275,28-12.275-28a13.123,13.123,0,0,0-12.06-7.86h0a13.354,13.354,0,0,0-12.06,7.86L242.274,66.014a50.146,50.146,0,0,0-82.481-18.2,49.58,49.58,0,0,0-14.644,35.426V84.75H136V24.881A13.189,13.189,0,0,0,122.86,11.745H103.909A13.189,13.189,0,0,0,90.772,24.881v2.046a13.675,13.675,0,0,0-3.661-.538h-19.6A13.036,13.036,0,0,0,55.777,33.6a52.614,52.614,0,0,0-5.815-.323,50.176,50.176,0,0,0-35.318,85.6,48.622,48.622,0,0,0,13.675,9.691,7.948,7.948,0,0,1-3.553,1.292H17.444A13.189,13.189,0,0,0,4.307,143v36.826a13.189,13.189,0,0,0,13.137,13.137h7.322A13.043,13.043,0,0,0,36.18,186.29,26.48,26.48,0,0,0,47.7,181.229a26.419,26.419,0,0,0,15.075,5.384,13.208,13.208,0,0,0,3.446,1.831,39.749,39.749,0,0,0,33.7,60.838h0a39.528,39.528,0,0,0,34.564-20.136l12.814,5.6a12.86,12.86,0,0,0,5.276,1.077,14.183,14.183,0,0,0,4.738-.861,13.133,13.133,0,0,0,7.214-7l3.338-7.645,11.845,27.135a13.123,13.123,0,0,0,12.06,7.86,13.354,13.354,0,0,0,12.06-7.86l11.845-27.135,3.338,7.645a13.133,13.133,0,0,0,7.214,7,11.925,11.925,0,0,0,4.738.861,12.86,12.86,0,0,0,5.276-1.077l17.228-7.537a12.684,12.684,0,0,0,5.707-4.846,49.412,49.412,0,0,0,71.175-5.492v2.046a13.189,13.189,0,0,0,13.137,13.137h19.167a13.2,13.2,0,0,0,13.137-12.814l24.658,29.827a13.313,13.313,0,0,0,10.122,4.738,12.286,12.286,0,0,0,4.415-.754,13.155,13.155,0,0,0,8.722-12.383V217.516a49.049,49.049,0,0,0,37.579,17.336,47.435,47.435,0,0,0,5.6-.323,13,13,0,0,0,11.629,7h19.167a13.189,13.189,0,0,0,13.137-13.137V217.624c.861.969,1.723,1.831,2.584,2.8a49.011,49.011,0,0,0,35,14.429,49.478,49.478,0,1,0-.108-98.956Z" transform="translate(0 0)"/><g transform="translate(13.029 13.037)"><path class="b" d="M86.074,36.7v87.542H66.585V112.936a35.173,35.173,0,0,1-17.551,4.522,36.987,36.987,0,0,1,0-73.974,35.173,35.173,0,0,1,17.551,4.522V36.7ZM31.7,80.632a17.5,17.5,0,0,0,35,0,17.5,17.5,0,1,0-35,0Z" transform="translate(-12.1 -10.211)"/><path class="b" d="M115.99,96.105h24.335V115.6H96.5V23.1h19.49Z" transform="translate(-5.62 -11.255)"/><path class="b" d="M184.333,107.283h2.907v19.382h-2.907A36.856,36.856,0,0,1,147.4,89.732v-9.8a36.987,36.987,0,0,1,73.974,0V92.639H167.213A17.526,17.526,0,0,0,184.333,107.283Zm.108-44.794a17.575,17.575,0,0,0-16.152,10.768h32.088A17.443,17.443,0,0,0,184.441,62.49Z" transform="translate(-1.712 -9.728)"/><path class="b" d="M252.565,35.2,276.9,90.654,301.235,35.2,334.4,110.9l-17.551,7.753L301.235,83.009,276.9,138.463,252.565,83.009,236.951,118.65,219.4,110.9Z" transform="translate(3.816 -10.326)"/><path class="b" d="M403.474,38.589v87.542h-19.49V114.824a35.172,35.172,0,0,1-17.551,4.522,36.987,36.987,0,0,1,0-73.974,35.172,35.172,0,0,1,17.551,4.522V38.589Zm-29.827,4.63L360.726,30.3l-8.4,8.4-9.153-9.045L360.726,12.1l12.921,12.921,8.4-8.4,9.153,9.045Zm-24.658,39.3a17.5,17.5,0,0,0,35,0,17.5,17.5,0,1,0-35,0Z" transform="translate(12.269 -12.1)"/><path class="b" d="M485.674,80.141A36.987,36.987,0,1,1,448.633,43.1,36.947,36.947,0,0,1,485.674,80.141Zm-54.485,0a17.5,17.5,0,0,0,35,0,17.5,17.5,0,1,0-35,0Z" transform="translate(18.58 -9.72)"/><g transform="translate(122.106 114.784)"><path class="b" d="M158.126,130.6l23.9,54.592,23.9-54.592,32.626,74.405-17.228,7.537-15.4-35-23.9,54.592-23.9-54.592-15.4,35L125.5,205.005Z" transform="translate(-125.5 -117.786)"/><path class="b" d="M256.667,174.48a17.228,17.228,0,1,0,34.457,0V141.1H310.29v33.38a36.395,36.395,0,1,1-72.79,0V141.1h19.167Z" transform="translate(-116.901 -116.98)"/><path class="b" d="M386.083,231.277l-47.917-57.823v36.072H319V120.8l47.917,57.823V142.551h19.167Z" transform="translate(-110.644 -118.539)"/><path class="b" d="M467.382,118.7V219.163H448.216V208.072a33.961,33.961,0,0,1-17.228,4.522,36.341,36.341,0,0,1,0-72.682,33.961,33.961,0,0,1,17.228,4.522V118.808h19.167Zm-53.516,57.607a17.175,17.175,0,0,0,34.349,0,17.175,17.175,0,1,0-34.349,0Z" transform="translate(-104.832 -118.7)"/><path class="b" d="M548.182,174.795a36.341,36.341,0,1,1-36.395-36.4A36.258,36.258,0,0,1,548.182,174.795Zm-53.516,0a17.175,17.175,0,0,0,34.349,0,17.175,17.175,0,1,0-34.349,0Z" transform="translate(-98.629 -117.188)"/></g></g><g transform="translate(17.336 142.788)"><path class="c" d="M23.422,132.7v4.307a13.569,13.569,0,0,1,6.568-1.723,14,14,0,0,1,0,28,13.258,13.258,0,0,1-6.568-1.723v7.968H16.1V132.7Zm0,16.582a6.568,6.568,0,1,0,6.568-6.568A6.594,6.594,0,0,0,23.422,149.282Z" transform="translate(-16.1 -132.592)"/><path class="c" d="M74.288,132.708v33.057H66.966v-4.307A13.569,13.569,0,0,1,60.4,163.18a14,14,0,1,1,0-28,13.258,13.258,0,0,1,6.568,1.723V132.6h7.322ZM53.722,149.29a6.568,6.568,0,1,0,6.568-6.568A6.526,6.526,0,0,0,53.722,149.29Z" transform="translate(-13.774 -132.6)"/><path class="c" d="M85.522,132.7v4.307a13.569,13.569,0,0,1,6.568-1.723h.754v7.322H92.09a6.526,6.526,0,0,0-6.568,6.568V162.1H78.2V132.7Z" transform="translate(-11.332 -132.592)"/><path class="c" d="M122.988,132.708v33.057h-7.322v-4.307a13.568,13.568,0,0,1-6.568,1.723,14,14,0,0,1,0-28,13.258,13.258,0,0,1,6.568,1.723V132.6h7.322ZM102.422,149.29a6.568,6.568,0,1,0,6.568-6.568A6.526,6.526,0,0,0,102.422,149.29Z" transform="translate(-10.035 -132.6)"/><path class="c" d="M121.085,196.4A26.543,26.543,0,1,1,94.6,169.7,26.794,26.794,0,0,1,121.085,196.4ZM82,196.4a12.545,12.545,0,0,0,25.089,0A12.545,12.545,0,1,0,82,196.4Z" transform="translate(-12.115 -129.752)"/></g></g></svg>